<?xml version="1.0" encoding="utf-8"?>
<!-- Generator: Adobe Illustrator 16.0.0, SVG Export Plug-In . SVG Version: 6.00 Build 0)  -->
<!DOCTYPE svg PUBLIC "-//W3C//DTD SVG 1.1//EN" "http://www.w3.org/Graphics/SVG/1.1/DTD/svg11.dtd">
<svg version="1.1" id="Capa_1" xmlns="http://www.w3.org/2000/svg" xmlns:xlink="http://www.w3.org/1999/xlink" x="0px" y="0px"
	 width="392px" height="378px" viewBox="66.5 0 392 378" enable-background="new 66.5 0 392 378" xml:space="preserve">
<path d="M426.01,246.605c2.888-12.52,4.438-25.279,4.438-38.054c0-59.274-30.182-113.25-80.742-144.376
	c-3.083-1.89-7.084-0.932-8.968,2.131c-1.89,3.069-0.932,7.078,2.131,8.967c46.677,28.741,74.545,78.559,74.545,133.278
	c0,11.249-1.304,22.491-3.734,33.544c-3.005-0.625-6.113-0.958-9.301-0.958c-25.156,0-45.62,20.471-45.62,45.621
	c0,25.149,20.464,45.62,45.62,45.62c25.157,0,45.621-20.471,45.621-45.62C450,269.43,440.283,254.328,426.01,246.605z"/>
<path fill="#16D5FF" d="M404.379,319.345c-17.968,0-32.586-14.618-32.586-32.586s14.618-32.587,32.586-32.587
	c17.969,0,32.587,14.619,32.587,32.587S422.348,319.345,404.379,319.345z"/>
<path d="M336.579,328.405c-17.752,10.371-37.128,17.058-57.603,19.869c-41.226,5.66-83.165-5.521-116.16-30.705
	c6.924-9.272,10.366-21.139,8.672-33.477c-3.421-24.917-26.479-42.414-51.402-38.991c-24.922,3.422-42.412,26.485-38.991,51.402
	c3.421,24.916,26.48,42.412,51.402,38.99c7.916-1.087,15.071-4.167,21.054-8.646c35.945,28.029,81.963,40.551,127.198,34.34
	c22.179-3.046,43.176-10.29,62.406-21.535c3.105-1.814,4.155-5.807,2.34-8.919C343.683,327.634,339.686,326.591,336.579,328.405z"/>
<path fill="#16D5FF" d="M94.035,289.759c0-17.968,14.618-32.587,32.586-32.587c17.968,0,32.586,14.619,32.586,32.587
	s-14.618,32.586-32.586,32.586C108.653,322.345,94.035,307.727,94.035,289.759z"/>
<path d="M88.226,214.525c0.157,0.01,0.313,0.014,0.463,0.01c3.395-0.071,6.194-2.75,6.369-6.196
	c3.259-65.835,46.896-121.71,109.287-141.233c5.961,18.792,23.734,32.278,44.422,31.843c25.15-0.528,45.181-21.424,44.653-46.568
	C292.892,27.236,272.002,7.2,246.851,7.728c-25.092,0.527-45.085,21.331-44.65,46.406C133.661,74.782,85.601,135.75,82.04,207.7
	C81.861,211.288,84.631,214.354,88.226,214.525z"/>
<path fill="#16D5FF" d="M247.125,20.759c17.965-0.377,32.886,13.931,33.263,31.895c0.377,17.964-13.93,32.886-31.895,33.263
	c-17.964,0.377-32.886-13.931-33.263-31.896C214.853,36.059,229.161,21.137,247.125,20.759z"/>
<path fill="#16D5FF" stroke="#000000" stroke-miterlimit="10" d="M330.592,154.466c-6.896,0-13.473,1.39-19.468,3.9l-14.336-27.815
	h20.037c2.174,0,3.942,1.769,3.942,3.942c0,2.174-1.769,3.942-3.942,3.942h-4.275c-2.251,0-4.073,1.824-4.073,4.073
	c0,2.25,1.822,4.074,4.073,4.074h4.275c6.665,0,12.089-5.423,12.089-12.089s-5.422-12.089-12.089-12.089h-26.719
	c-1.42,0-2.739,0.741-3.479,1.953c-0.739,1.213-0.793,2.724-0.142,3.987l7.128,13.833h-58.792l-5.932-11.625h9.381
	c2.249,0,4.074-1.824,4.074-4.074s-1.825-4.074-4.074-4.074h-26.719c-2.251,0-4.074,1.824-4.074,4.074s1.823,4.074,4.074,4.074
	h8.192l7.916,15.517l-9.305,14.417c-7.122-3.837-15.263-6.018-23.904-6.018c-27.881,0-50.564,22.683-50.564,50.565
	c0,27.879,22.684,50.564,50.564,50.564c26.51,0,48.318-20.508,50.4-46.492h11.953l-4.645,15.109h-2.672
	c-2.251,0-4.074,1.824-4.074,4.074s1.823,4.074,4.074,4.074h14.665c2.249,0,4.073-1.824,4.073-4.074s-1.824-4.074-4.073-4.074
	h-3.469l5.36-17.443l33.896-52.318l3.947,7.66c-14.315,8.939-23.862,24.835-23.862,42.92c0,27.879,22.685,50.564,50.566,50.564
	c27.881,0,50.563-22.686,50.563-50.564C381.156,177.149,358.473,154.466,330.592,154.466z"/>
<path fill="#FFFFFF" stroke="#000000" stroke-miterlimit="10" d="M231.942,154.458l23.725,46.499h-10.814
	c-1.175-14.657-8.627-27.569-19.659-36.042L231.942,154.458z"/>
<path fill="#FFFFFF" stroke="#000000" stroke-miterlimit="10" d="M236.67,200.957h-34.739l18.825-29.166
	C229.56,178.773,235.541,189.165,236.67,200.957z"/>
<path fill="#FFFFFF" stroke="#000000" stroke-miterlimit="10" d="M194.452,247.447c-23.39,0-42.417-19.027-42.417-42.416
	c0-23.39,19.027-42.418,42.417-42.418c7.014,0,13.631,1.721,19.465,4.748l-22.888,35.459c-0.809,1.254-0.867,2.85-0.154,4.158
	s2.086,2.125,3.577,2.125h42.218C234.613,230.588,216.467,247.447,194.452,247.447z"/>
<polygon fill="#FFFFFF" stroke="#000000" stroke-miterlimit="10" points="262.738,196.891 238.979,150.323 292.908,150.323 "/>
<path fill="#FFFFFF" stroke="#000000" stroke-miterlimit="10" d="M330.592,247.447c-23.39,0-42.419-19.027-42.419-42.416
	c0-14.938,7.767-28.084,19.466-35.643l19.331,37.508c0.725,1.404,2.148,2.207,3.625,2.207c0.628,0,1.267-0.145,1.862-0.453
	c2.001-1.029,2.787-3.486,1.756-5.486l-19.338-37.52c4.864-1.948,10.164-3.032,15.717-3.032c23.389,0,42.417,19.029,42.417,42.419
	C373.009,228.42,353.98,247.447,330.592,247.447z"/>
</svg>
